HIERARCHY
ROOT Hips
{
  OFFSET 0 0 0
  CHANNELS 6 Xposition Yposition Zposition Zrotation Yrotation Xrotation
  JOINT LeftThigh
  {
    OFFSET 8.409438 0 -5.917753
    CHANNELS 3 Zrotation Yrotation Xrotation
    JOINT LeftLeg
    {
      OFFSET 0 0 -42.358652
      CHANNELS 3 Zrotation Yrotation Xrotation
      JOINT LeftFoot
      {
        OFFSET 0 0 -39.357303
        CHANNELS 3 Zrotation Yrotation Xrotation
      }
    }
  }
  JOINT RightThigh
  {
    OFFSET -8.409438 0 -5.917753
    CHANNELS 3 Zrotation Yrotation Xrotation
    JOINT RightLeg
    {
      OFFSET 0 0 -42.358652
      CHANNELS 3 Zrotation Yrotation Xrotation
      JOINT RightFoot
      {
        OFFSET 0 0 -39.357303
        CHANNELS 3 Zrotation Yrotation Xrotation
      }
    }
  }
  JOINT SpineLow
  {
    OFFSET 0 0 4.719101
    CHANNELS 3 Zrotation Yrotation Xrotation
    JOINT SpineMid
    {
      OFFSET 0 0 12.899191
      CHANNELS 3 Zrotation Yrotation Xrotation
      JOINT Chest
      {
        OFFSET 0 0 12.899191
        CHANNELS 3 Zrotation Yrotation Xrotation
        JOINT LeftShoulder
        {
          OFFSET 7.550562 1.41573 9.438202
          CHANNELS 3 Zrotation Yrotation Xrotation
          JOINT LeftArm
          {
            OFFSET 9.155056 0 4.247191
            CHANNELS 3 Zrotation Yrotation Xrotation
            JOINT LeftForearm
            {
              OFFSET 0 0 25.771955
              CHANNELS 3 Zrotation Yrotation Xrotation
              JOINT LeftHand
              {
                OFFSET 0 0 25.197169
                CHANNELS 3 Zrotation Yrotation Xrotation
              }
            }
          }
        }
        JOINT RightShoulder
        {
          OFFSET -7.550562 1.41573 9.438202
          CHANNELS 3 Zrotation Yrotation Xrotation
          JOINT RightArm
          {
            OFFSET -9.155056 0 4.247191
            CHANNELS 3 Zrotation Yrotation Xrotation
            JOINT RightForearm
            {
              OFFSET 0 0 -25.771955
              CHANNELS 3 Zrotation Yrotation Xrotation
              JOINT RightHand
              {
                OFFSET 0 0 -25.197169
                CHANNELS 3 Zrotation Yrotation Xrotation
              }
            }
          }
        }
        JOINT Neck
        {
          OFFSET 0 0 15.101124
          CHANNELS 3 Zrotation Yrotation Xrotation
          JOINT Head
          {
            OFFSET 0 0 11.325843
            CHANNELS 3 Zrotation Yrotation Xrotation
            End Site
            {
              OFFSET 0 0 14.157303
            }
          }
        }
      }
    }
  }
}
MOTION
Frames: 7
Frame Time: 0.0
0.0  101.685394  0.0  1.697403  37.065408  -97.332348  -2.221056  -18.923095  0.136307  -16.368066  16.004281  17.7662  -0.036907  3.058469  2.772898  -22.722827  15.129369  5.667498  -11.998691  6.099029  13.478444  -1.131504  1.710303  -2.320994  1.629598  0.614161  2.065608  4.5038  1.537368  5.685519  4.5038  1.537368  5.685518  -22.479415  21.407196  8.45908  120.28156  43.042888  161.149177  -24.468184  26.346977  91.781181  43.274157  -33.461423  -10.9064  26.008166  -8.800955  5.102557  130.846091  45.096797  35.73631  -37.745319  -16.054525  -105.271315  50.267467  6.885105  14.228577  -9.657239  -5.284307  1.807944  -7.222192  -3.992993  1.271647  
0.0  101.685394  0.0  1.681702  39.3662  -97.1669  -3.243255  -18.925799  -0.468156  -16.608913  16.347149  17.970558  -0.555513  3.000395  2.507064  -23.128065  15.066488  5.960264  -13.116721  6.17148  13.503973  -1.596296  1.791688  -2.380388  1.565485  0.663849  2.047986  4.332634  1.679702  5.639364  4.332635  1.679702  5.639364  -23.57094  21.418222  8.404164  119.640041  43.384545  160.989967  -24.783517  25.842387  91.61358  43.745677  -33.482336  -11.413396  26.079114  -9.128123  5.032328  129.895969  45.118494  35.404525  -37.778325  -15.875514  -105.399815  50.564185  6.879263  15.295583  -10.779626  -5.598188  2.09483  -8.05915  -4.237171  1.471373  
0.0  101.685394  0.0  1.60643  41.329966  -97.070091  -3.755641  -19.108653  -0.953754  -16.984478  16.642077  18.027585  -1.078803  3.00076  2.286449  -23.146179  14.779619  6.28684  -13.906861  6.321524  13.667772  -2.188147  1.886641  -2.450309  1.510679  0.674649  2.032093  4.18348  1.714894  5.595337  4.18348  1.714893  5.595337  -24.311145  21.504129  8.542874  119.397895  43.788669  161.312849  -25.011241  25.491688  91.49007  44.053314  -33.56918  -11.862874  25.919722  -9.287536  5.154615  129.282851  45.18593  35.057961  -37.893595  -15.255307  -105.515881  50.784836  6.843697  16.289191  -11.693403  -5.749128  2.37813  -8.740405  -4.359267  1.672473  
0.0  101.685394  0.0  1.992092  43.967349  -96.456915  -4.96934  -18.798444  -1.764088  -17.519345  16.977795  17.981975  -1.418219  2.998721  2.15883  -24.108765  14.819122  6.106977  -14.63593  6.524532  13.919647  -2.849605  1.928914  -2.528616  1.290178  0.732878  2.004257  3.585419  1.894129  5.517142  3.585419  1.894129  5.517142  -24.868897  21.502344  8.488539  119.976946  44.058507  162.153781  -24.973741  25.414061  91.463864  44.404552  -33.76575  -12.483078  26.076911  -9.468437  5.425803  128.894498  45.302439  34.977884  -38.255828  -14.4261  -105.370599  50.933646  6.789451  16.849771  -12.398713  -5.791814  2.572384  -9.266852  -4.398227  1.810641  
0.0  101.685394  0.0  1.885087  45.378522  -96.424197  -4.954115  -19.034157  -2.135191  -17.963325  17.23778  17.992341  -1.918955  2.983603  1.962473  -23.993761  14.590085  6.230584  -15.225633  6.618403  14.273099  -3.16117  2.031386  -2.537781  1.225183  0.701749  1.998164  3.405044  1.814902  5.497003  3.405044  1.814902  5.497002  -25.212584  21.900756  8.598822  120.688336  44.646132  163.113941  -24.932021  25.604202  91.335486  44.76406  -33.94228  -13.067859  26.044602  -9.536492  5.860234  128.882272  45.396097  34.980272  -38.657585  -13.546562  -105.30864  51.067609  6.601535  17.210446  -12.94173  -5.691963  2.719979  -9.673131  -4.328912  1.918407  
0.0  101.685394  0.0  1.785526  46.501736  -96.412372  -4.828736  -19.205561  -2.452542  -18.55477  17.467643  17.865288  -2.428142  2.961381  1.765652  -23.835006  14.420211  6.267161  -15.667628  6.682431  14.695633  -3.515274  2.155472  -2.544067  1.149796  0.667622  1.997753  3.196196  1.728031  5.492141  3.196196  1.728031  5.492142  -25.086343  22.271929  8.731405  121.558351  45.099253  164.378112  -24.98629  25.809295  91.123242  45.134619  -34.012805  -13.503614  27.281928  -9.989896  6.64784  128.36548  45.734484  35.751499  -39.038964  -12.751185  -105.238446  51.011254  6.365272  17.285591  -13.384931  -5.508346  2.790195  -10.005995  -4.194799  1.971151  
0.0  101.685394  0.0  1.652372  47.217619  -96.495612  -4.4636  -19.368438  -2.585588  -18.989046  17.566811  17.848774  -2.814802  2.961184  1.602278  -23.630168  14.275669  6.243599  -16.007076  6.750685  15.148142  -3.631992  2.269791  -2.534508  1.114849  0.620582  2.026931  3.097423  1.601118  5.568678  3.097424  1.601118  5.568679  -25.05675  22.641219  8.567232  122.596165  45.442125  165.641551  -24.940658  26.034364  91.007734  45.531587  -33.940073  -13.734725  27.376256  -10.021486  6.991519  128.443356  45.787891  35.740727  -39.188194  -12.276701  -105.220206  50.930086  6.27872  17.354261  -13.624946  -5.347091  2.772508  -10.187221  -4.074575  1.959476  
